<svg width="512" height="512" viewBox="0 0 512 512" fill="none" xmlns="http://www.w3.org/2000/svg">
<g clip-path="url(#clip0_7_6279)">
<mask id="mask0_7_6279" style="mask-type:luminance" maskUnits="userSpaceOnUse" x="0" y="0" width="512" height="512">
<path d="M512 0H0V512H512V0Z" fill="white"/>
</mask>
<g mask="url(#mask0_7_6279)">
<path d="M448 0H64C28.6538 0 0 28.6538 0 64V448C0 483.346 28.6538 512 64 512H448C483.346 512 512 483.346 512 448V64C512 28.6538 483.346 0 448 0Z" fill="#07080D"/>
<path opacity="0.15" d="M60 81.5C60.8284 81.5 61.5 80.8284 61.5 80C61.5 79.1716 60.8284 78.5 60 78.5C59.1716 78.5 58.5 79.1716 58.5 80C58.5 80.8284 59.1716 81.5 60 81.5Z" fill="#BC1F50"/>
<path opacity="0.12" d="M450 61C450.552 61 451 60.5523 451 60C451 59.4477 450.552 59 450 59C449.448 59 449 59.4477 449 60C449 60.5523 449.448 61 450 61Z" fill="#D06AFF"/>
<path opacity="0.1" d="M80.0008 441.201C80.6635 441.201 81.2008 440.664 81.2008 440.001C81.2008 439.338 80.6635 438.801 80.0008 438.801C79.338 438.801 78.8008 439.338 78.8008 440.001C78.8008 440.664 79.338 441.201 80.0008 441.201Z" fill="#448CAA"/>
<path opacity="0.1" d="M430 451.5C430.828 451.5 431.5 450.828 431.5 450C431.5 449.172 430.828 448.5 430 448.5C429.172 448.5 428.5 449.172 428.5 450C428.5 450.828 429.172 451.5 430 451.5Z" fill="#C4FF7B"/>
<path d="M8 306.273V293.113C12.1781 292.137 15.7642 290.397 18.7585 287.89C21.7527 285.314 24.0507 282.146 25.6524 278.385C27.2543 274.556 28.055 270.308 28.055 265.642V246.736C28.055 241.932 27.2543 237.614 25.6524 233.785C24.0507 229.954 21.7527 226.751 18.7585 224.174C15.7642 221.599 12.1781 219.823 8 218.848V206C14.8938 207.811 20.8127 210.666 25.7568 214.566C30.701 218.395 34.4955 223.061 37.1415 228.562C39.8582 233.994 41.2159 240.052 41.2159 246.736V265.642C41.2159 275.808 38.326 284.443 32.5463 291.546C26.7666 298.579 18.5844 303.489 8 306.273Z" fill="#3FFF62"/>
<path d="M69.5 305.231V207.047H98.7462V219.059H82.557V293.22H98.7462V305.231H69.5Z" fill="white"/>
<path d="M113.582 301.233V209.734H132.759L158.203 283.684C157.952 281.011 157.66 277.878 157.326 274.285C157.076 270.608 156.867 266.889 156.7 263.129C156.532 259.285 156.448 255.943 156.448 253.102V209.734H170.738V301.233H151.56L126.367 227.281C126.534 229.704 126.743 232.629 126.993 236.054C127.244 239.482 127.453 242.99 127.62 246.584C127.787 250.177 127.87 253.478 127.87 256.485V301.233H113.582ZM217.316 302.487C211.467 302.487 206.369 301.4 202.024 299.228C197.763 296.972 194.462 293.838 192.121 289.827C189.865 285.733 188.738 280.927 188.738 275.412V235.553C188.738 230.038 189.865 225.276 192.121 221.265C194.462 217.171 197.763 214.037 202.024 211.864C206.369 209.608 211.467 208.48 217.316 208.48C223.248 208.48 228.345 209.608 232.606 211.864C236.869 214.037 240.128 217.171 242.384 221.265C244.723 225.276 245.894 229.996 245.894 235.428V275.412C245.894 280.927 244.723 285.733 242.384 289.827C240.128 293.838 236.869 296.972 232.606 299.228C228.345 301.4 223.248 302.487 217.316 302.487ZM217.316 288.698C221.577 288.698 224.795 287.571 226.967 285.314C229.139 282.974 230.225 279.675 230.225 275.412V235.553C230.225 231.208 229.139 227.909 226.967 225.653C224.795 223.396 221.577 222.267 217.316 222.267C213.053 222.267 209.837 223.396 207.663 225.653C205.491 227.909 204.405 231.208 204.405 235.553V275.412C204.405 279.675 205.491 282.974 207.663 285.314C209.92 287.571 213.138 288.698 217.316 288.698ZM292.472 302.487C283.53 302.487 276.511 300.063 271.413 295.217C266.4 290.286 263.894 283.602 263.894 275.162V209.734H279.687V275.036C279.687 279.381 280.772 282.766 282.946 285.19C285.117 287.613 288.293 288.824 292.472 288.824C296.566 288.824 299.699 287.613 301.871 285.19C304.127 282.766 305.256 279.381 305.256 275.036V209.734H321.05V275.162C321.05 283.602 318.542 290.286 313.528 295.217C308.515 300.063 301.496 302.487 292.472 302.487ZM339.927 301.233V286.317L376.652 224.274H340.804V209.734H393.949V224.649L357.099 286.693H395.328V301.233H339.927Z" fill="#C4FF7B"/>
<path d="M410.453 305.231V293.22H426.642V219.059H410.453V207.047H439.699V305.231H410.453Z" fill="white"/>
<path d="M497.749 305.337C493.85 305.337 490.403 304.57 487.409 303.038C484.485 301.506 482.256 299.348 480.725 296.562C479.193 293.846 478.53 290.573 478.74 286.744L479.784 270.868C479.993 268.012 479.402 265.854 478.008 264.391C476.685 262.929 474.423 262.198 471.22 262.198H458.789V250.185H471.22C474.423 250.185 476.685 249.454 478.008 247.992C479.402 246.53 479.993 244.406 479.784 241.621L478.74 225.221C478.53 221.462 479.193 218.224 480.725 215.507C482.256 212.792 484.485 210.703 487.409 209.241C490.403 207.778 493.85 207.047 497.749 207.047H504.958V219.059H499.629C497.123 219.059 495.138 219.651 493.677 220.835C492.284 222.018 491.657 223.898 491.797 226.475L492.841 242.77C493.12 246.879 491.9 250.185 489.185 252.693C486.468 255.199 482.674 256.453 477.8 256.453V255.721C482.605 255.721 486.365 257.01 489.08 259.587C491.866 262.093 493.12 265.436 492.841 269.614L491.797 285.908C491.726 288.207 492.388 290.016 493.78 291.339C495.243 292.593 497.193 293.22 499.629 293.22H504.958V305.337H497.749Z" fill="#FF00A1"/>
</g>
</g>
<defs>
<clipPath id="clip0_7_6279">
<rect width="512" height="512" fill="white"/>
</clipPath>
</defs>
</svg>
